<?xml version="1.0" standalone="no"?>
<!DOCTYPE svg PUBLIC "-//W3C//DTD SVG 20010904//EN"
 "http://www.w3.org/TR/2001/REC-SVG-20010904/DTD/svg10.dtd">
<svg version="1.0" xmlns="http://www.w3.org/2000/svg"
 width="500.000000pt" height="500.000000pt" viewBox="0 0 500.000000 500.000000"
 preserveAspectRatio="xMidYMid meet">
<metadata>
Created by potrace 1.14, written by Peter Selinger 2001-2017
</metadata>
<g transform="translate(0.000000,500.000000) scale(0.100000,-0.100000)"
fill="#000000" stroke="none">
<path d="M0 2500 l0 -2500 2500 0 2500 0 0 2500 0 2500 -2500 0 -2500 0 0
-2500z m2763 1506 c526 -96 964 -472 1136 -973 61 -179 75 -267 75 -488 0
-182 -2 -210 -26 -310 -69 -294 -190 -515 -397 -728 -252 -260 -584 -412 -955
-436 -459 -31 -877 137 -1187 475 -212 231 -338 503 -380 819 -15 113 -6 372
16 475 137 632 641 1099 1275 1180 95 12 341 4 443 -14z m-1370 -390 c-10 -11
-39 -45 -65 -74 -161 -180 -293 -458 -344 -722 -27 -142 -25 -408 4 -557 86
-435 352 -815 726 -1038 104 -62 295 -143 396 -169 518 -129 1060 12 1444 375
286 271 451 623 482 1032 5 64 10 87 21 87 23 0 25 -23 13 -142 -32 -328 -157
-628 -366 -879 -211 -253 -520 -441 -849 -517 -581 -134 -1189 71 -1569 527
-386 463 -472 1117 -219 1670 62 137 170 298 266 398 40 41 54 50 64 41 11 -9
10 -15 -4 -32z m795 -2755 c8 -5 12 -22 10 -42 l-3 -34 -175 0 -175 0 -3 34
c-2 20 2 37 10 42 7 5 83 9 168 9 85 0 161 -4 168 -9z m438 -171 l51 -174 52
164 c29 91 54 171 56 178 4 10 95 19 95 8 0 -2 14 -50 31 -107 16 -57 39 -135
51 -174 l20 -69 52 165 c29 90 55 170 60 177 9 15 86 16 86 1 0 -31 -135 -424
-151 -440 -11 -11 -29 -19 -42 -19 -46 0 -65 27 -97 133 -17 56 -37 120 -44
142 l-13 40 -47 -143 c-49 -145 -66 -172 -111 -172 -24 0 -61 31 -69 57 -89
299 -116 394 -116 403 0 7 16 10 42 8 l43 -3 51 -175z m-1257 -6 l96 -172 5
172 5 171 38 3 37 3 0 -218 c0 -157 -3 -222 -12 -231 -13 -13 -75 -16 -102 -6
-8 3 -59 85 -113 181 l-98 175 -3 -182 -2 -181 -38 3 -37 3 -3 208 c-1 135 1
215 8 228 10 17 20 20 67 17 l56 -3 96 -171z m2449 139 l-3 -38 -127 -3 c-127
-3 -128 -3 -134 -27 -3 -14 -3 -36 0 -49 6 -23 9 -24 116 -28 144 -4 153 -12
159 -133 3 -83 2 -85 -27 -115 l-31 -31 -148 3 -148 3 -3 38 -3 37 129 0 c146
0 155 4 150 67 l-3 38 -112 5 c-99 4 -115 8 -134 27 -40 39 -39 183 2 224 17
17 34 19 170 19 l150 0 -3 -37z m-1630 -190 l3 -43 -130 0 -131 0 0 -34 c0
-18 6 -38 13 -44 7 -7 66 -13 133 -14 l119 -3 0 -45 0 -45 -122 -3 c-182 -4
-216 18 -229 147 -8 74 0 109 29 121 12 5 87 8 167 7 l145 -2 3 -42z"/>
<path d="M2354 3949 c-537 -52 -1017 -436 -1188 -950 -60 -179 -71 -252 -70
-454 0 -147 5 -199 23 -285 56 -263 177 -490 368 -691 190 -199 421 -330 703
-400 84 -20 120 -23 300 -24 284 0 409 28 645 145 148 74 267 162 378 280 304
323 440 736 382 1160 -43 317 -171 579 -393 803 -148 150 -299 251 -487 325
-212 84 -430 114 -661 91z m266 -79 c0 -5 -9 -10 -20 -10 -11 0 -20 5 -20 10
0 6 9 10 20 10 11 0 20 -4 20 -10z m110 -10 c0 -5 -6 -10 -14 -10 -8 0 -18 5
-21 10 -3 6 3 10 14 10 12 0 21 -4 21 -10z m110 -20 c8 -5 12 -12 9 -15 -8 -8
-39 5 -39 16 0 11 11 11 30 -1z m-340 -55 c0 -23 -4 -25 -47 -25 -149 0 -359
-56 -512 -135 -363 -188 -619 -570 -649 -967 -28 -375 86 -692 343 -954 189
-192 377 -295 632 -349 357 -74 759 35 1031 280 41 37 58 46 69 39 9 -5 16
-14 17 -19 2 -15 -140 -128 -223 -179 -321 -194 -709 -240 -1054 -124 -435
145 -747 499 -843 958 -25 119 -26 364 -1 480 57 265 173 476 368 665 226 219
507 338 842 354 23 1 27 -3 27 -24z m460 15 c0 -5 -6 -10 -14 -10 -8 0 -18 5
-21 10 -3 6 3 10 14 10 12 0 21 -4 21 -10z m107 -47 c3 -7 -3 -9 -16 -6 -12 3
-21 10 -21 15 0 13 32 6 37 -9z m103 -55 c0 -13 -23 -5 -28 10 -2 7 2 10 12 6
9 -3 16 -11 16 -16z m-1340 -7 c0 -11 -31 -24 -39 -16 -3 3 1 10 9 15 19 12
30 12 30 1z m940 -31 c124 -31 155 -45 158 -68 4 -27 -1 -27 -91 2 -40 13
-108 30 -150 36 -80 13 -93 20 -83 46 6 17 49 13 166 -16z m506 -27 c-8 -8
-36 5 -36 17 0 7 6 7 21 0 11 -7 18 -14 15 -17z m-1556 -18 c-7 -8 -16 -12
-21 -9 -13 8 -1 24 18 24 13 0 13 -3 3 -15z m1639 -38 c6 -8 8 -17 4 -20 -7
-8 -33 11 -33 24 0 13 16 11 29 -4z m-743 -8 c540 -60 939 -530 911 -1073 -10
-195 -66 -364 -173 -521 -79 -117 -116 -155 -137 -144 -9 6 -17 13 -17 17 0 4
29 43 65 87 78 95 155 246 187 365 20 72 23 109 23 245 -1 134 -5 174 -24 245
-101 378 -405 658 -787 724 -113 20 -215 20 -327 1 -211 -37 -381 -126 -532
-279 -124 -125 -199 -251 -251 -422 -26 -82 -28 -103 -28 -259 -1 -147 2 -181
22 -255 77 -285 278 -521 551 -648 98 -45 247 -82 332 -82 67 0 69 -1 69 -25
0 -24 -3 -25 -60 -25 -34 0 -96 7 -138 16 -338 70 -618 297 -750 609 -174 413
-63 889 276 1181 106 91 208 149 346 196 154 52 279 66 442 47z m-976 -18 c0
-5 -7 -12 -16 -15 -24 -9 -28 -7 -14 9 14 17 30 20 30 6z m1809 -67 c3 -16 1
-17 -13 -5 -19 16 -21 34 -3 29 6 -3 14 -13 16 -24z m-1899 -13 c0 -12 -20
-25 -27 -18 -7 7 6 27 18 27 5 0 9 -4 9 -9z m1042 -19 c6 -6 8 -18 5 -26 -5
-13 -27 -16 -117 -17 -60 -1 -116 -2 -122 -3 -7 -1 -14 9 -16 21 -2 16 3 24
20 27 72 17 213 15 230 -2z m708 -91 c61 -60 110 -116 110 -124 0 -35 -31 -25
-77 25 -55 58 -127 127 -162 156 -26 20 -24 52 4 52 8 0 65 -49 125 -109z
m-391 6 c90 -45 117 -71 91 -87 -10 -6 -30 0 -68 21 -29 16 -76 39 -105 50
-57 23 -71 37 -55 56 14 17 35 11 137 -40z m619 34 c3 -8 -1 -12 -9 -9 -7 2
-15 10 -17 17 -3 8 1 12 9 9 7 -2 15 -10 17 -17z m-2063 -30 c-3 -6 -11 -11
-17 -11 -6 0 -6 6 2 15 14 17 26 13 15 -4z m710 -1 c0 -8 -13 -21 -30 -30 -16
-8 -62 -34 -102 -57 -79 -47 -103 -53 -103 -24 0 17 72 71 155 115 36 19 80
17 80 -4z m1424 -66 c3 -16 1 -17 -13 -5 -19 16 -21 34 -3 29 6 -3 14 -13 16
-24z m-2208 -37 c-8 -8 -11 -7 -11 4 0 20 13 34 18 19 3 -7 -1 -17 -7 -23z
m2273 -68 c-8 -13 -24 -1 -24 18 0 13 3 13 15 3 8 -7 12 -16 9 -21z m-2333
-32 c-8 -8 -11 -7 -11 4 0 20 13 34 18 19 3 -7 -1 -17 -7 -23z m1870 -24 c51
-59 108 -153 102 -169 -9 -24 -38 -15 -57 19 -11 17 -41 60 -68 94 -26 35 -48
69 -48 78 0 27 37 16 71 -22z m-1371 -27 c0 -7 -25 -50 -55 -96 -30 -46 -57
-92 -61 -102 -7 -25 -38 -19 -42 7 -3 21 52 119 101 180 26 33 57 39 57 11z
m1048 -15 c75 -28 156 -97 194 -168 53 -100 63 -164 63 -443 0 -178 -4 -273
-13 -315 -36 -158 -126 -267 -255 -307 -68 -22 -88 -23 -377 -23 -296 0 -306
1 -351 23 -31 15 -53 35 -70 65 l-24 42 0 510 0 510 23 41 c27 47 69 75 127
85 22 4 171 6 330 5 273 -2 294 -4 353 -25z m836 13 c9 -22 -3 -32 -14 -14
-12 19 -12 30 -1 30 5 0 12 -7 15 -16z m-2424 -38 c0 -17 -14 -29 -23 -20 -8
8 3 34 14 34 5 0 9 -6 9 -14z m2470 -82 c0 -8 -4 -12 -10 -9 -5 3 -10 13 -10
21 0 8 5 12 10 9 6 -3 10 -13 10 -21z m-195 -31 c24 -57 65 -220 65 -259 0
-35 -15 -53 -31 -37 -5 5 -14 38 -20 73 -5 34 -23 103 -39 153 -16 50 -27 94
-24 99 12 19 35 5 49 -29z m-2315 10 c0 -14 -19 -38 -25 -32 -8 8 5 39 16 39
5 0 9 -3 9 -7z m2545 -101 c-8 -9 -25 20 -18 31 3 5 10 2 15 -7 6 -10 7 -20 3
-24z m-2582 -27 c-5 -13 -23 -22 -23 -11 0 15 14 35 21 31 4 -3 6 -12 2 -20z
m2155 -7 c14 -18 41 -134 44 -193 3 -45 1 -50 -19 -53 -19 -3 -22 3 -28 45 -3
26 -13 78 -22 115 -15 66 -13 98 5 98 5 0 14 -6 20 -12z m452 -68 c0 -11 -4
-20 -10 -20 -5 0 -10 9 -10 20 0 11 5 20 10 20 6 0 10 -9 10 -20z m-2634 -57
c-11 -11 -19 6 -11 24 8 17 8 17 12 0 3 -10 2 -21 -1 -24z m458 -30 c-4 -25
-9 -79 -13 -121 -5 -68 -8 -77 -26 -77 -17 0 -20 8 -23 54 -4 68 15 193 31
203 23 14 38 -13 31 -59z m2188 -47 c-2 -5 -9 -1 -14 8 -5 9 -6 21 -2 28 9 14
25 -22 16 -36z m-2656 -33 c-11 -11 -19 6 -11 24 8 17 8 17 12 0 3 -10 2 -21
-1 -24z m2664 -63 c0 -11 -4 -20 -10 -20 -5 0 -10 9 -10 20 0 11 5 20 10 20 6
0 10 -9 10 -20z m-2660 -40 c0 -11 -4 -20 -10 -20 -5 0 -10 9 -10 20 0 11 5
20 10 20 6 0 10 -9 10 -20z m2646 -97 c-11 -11 -19 6 -11 24 8 17 8 17 12 0 3
-10 2 -21 -1 -24z m-2636 -23 c0 -11 -4 -20 -10 -20 -5 0 -10 9 -10 20 0 11 5
20 10 20 6 0 10 -9 10 -20z m2630 -74 c0 -8 -4 -18 -10 -21 -5 -3 -10 3 -10
14 0 12 5 21 10 21 6 0 10 -6 10 -14z m-2148 -23 c6 -16 28 -66 50 -112 29
-62 36 -87 27 -97 -15 -19 -33 -8 -57 35 -32 57 -74 172 -68 188 9 22 36 14
48 -14z m-462 -24 c0 -11 -4 -17 -10 -14 -5 3 -10 13 -10 21 0 8 5 14 10 14 6
0 10 -9 10 -21z m2576 -86 c-11 -11 -19 6 -11 24 8 17 8 17 12 0 3 -10 2 -21
-1 -24z m-2546 -29 c0 -8 -4 -12 -10 -9 -5 3 -10 13 -10 21 0 8 5 12 10 9 6
-3 10 -13 10 -21z m2514 -69 c-6 -16 -24 -21 -24 -7 0 11 11 22 21 22 5 0 6
-7 3 -15z m-2474 -41 c0 -8 -4 -12 -10 -9 -5 3 -10 13 -10 21 0 8 5 12 10 9 6
-3 10 -13 10 -21z m2203 -48 c11 -27 -176 -266 -208 -266 -32 0 -20 32 36 94
32 37 77 93 99 126 40 59 63 73 73 46z m224 -21 c-4 -8 -11 -15 -17 -15 -7 0
-7 6 0 21 13 23 26 19 17 -6z m-2380 -30 c9 -25 -4 -29 -17 -6 -7 15 -7 21 0
21 6 0 13 -7 17 -15z m2323 -76 c-7 -11 -14 -18 -17 -15 -8 8 5 36 17 36 7 0
7 -6 0 -21z m-2263 -24 c9 -25 -4 -29 -17 -6 -7 15 -7 21 0 21 6 0 13 -7 17
-15z m354 -78 c37 -35 91 -79 118 -98 51 -35 67 -69 32 -69 -41 0 -261 195
-247 219 13 20 27 12 97 -52z m1849 14 c0 -12 -20 -25 -27 -18 -7 7 6 27 18
27 5 0 9 -4 9 -9z m-2132 -40 c3 -8 -1 -12 -9 -9 -7 2 -15 10 -17 17 -3 8 1
12 9 9 7 -2 15 -10 17 -17z m2062 -50 c0 -13 -26 -32 -33 -24 -8 7 11 33 24
33 5 0 9 -4 9 -9z m-1985 -32 c12 -19 -5 -23 -22 -6 -16 16 -16 17 -1 17 9 0
20 -5 23 -11z m1892 -66 c-9 -9 -19 -14 -23 -11 -10 10 6 28 24 28 15 0 15 -1
-1 -17z m-372 -4 c12 -18 -23 -46 -100 -78 -137 -57 -225 -73 -225 -41 0 12
17 19 115 50 39 13 95 35 125 51 61 31 76 34 85 18z m-1437 -18 c3 -8 -1 -12
-9 -9 -7 2 -15 10 -17 17 -3 8 1 12 9 9 7 -2 15 -10 17 -17z m1722 -56 c-7 -8
-17 -12 -23 -8 -6 4 -3 11 8 19 23 17 32 10 15 -11z m-1632 -23 c2 -7 -2 -10
-12 -6 -9 3 -16 11 -16 16 0 13 23 5 28 -10z m577 -5 c50 -9 112 -20 140 -24
37 -6 51 -13 53 -27 4 -18 -1 -19 -79 -13 -95 6 -218 32 -244 51 -23 17 -10
39 19 33 11 -2 62 -12 111 -20z m970 -38 c-4 -5 -13 -9 -22 -9 -13 0 -13 3 -3
15 13 15 35 11 25 -6z m-1450 -19 c3 -5 -1 -10 -9 -10 -8 0 -18 5 -21 10 -3 6
1 10 9 10 8 0 18 -4 21 -10z m1350 -40 c-3 -5 -13 -10 -21 -10 -8 0 -12 5 -9
10 3 6 13 10 21 10 8 0 12 -4 9 -10z m-1245 -22 c0 -13 -23 -5 -28 10 -2 7 2
10 12 6 9 -3 16 -11 16 -16z m1140 -27 c0 -13 -28 -22 -35 -11 -3 4 1 11 7 13
20 8 28 8 28 -2z m-1040 -11 c8 -5 12 -12 9 -15 -8 -8 -39 5 -39 16 0 11 11
11 30 -1z m930 -29 c0 -11 -31 -24 -39 -16 -3 3 1 10 9 15 19 12 30 12 30 1z
m-810 -23 c0 -6 -7 -7 -16 -4 -9 3 -18 6 -20 6 -3 0 -3 4 1 10 7 11 35 2 35
-12z m115 -29 c-7 -10 -35 -1 -35 11 0 5 9 6 20 3 11 -3 17 -9 15 -14z m580
11 c-3 -5 -13 -10 -21 -10 -8 0 -14 5 -14 10 0 6 9 10 21 10 11 0 17 -4 14
-10z m-465 -26 c0 -2 -9 -4 -21 -4 -11 0 -18 4 -14 10 5 8 35 3 35 -6z m350 6
c0 -5 -9 -10 -21 -10 -11 0 -17 5 -14 10 3 6 13 10 21 10 8 0 14 -4 14 -10z
m-235 -10 c3 -5 -3 -10 -14 -10 -12 0 -21 5 -21 10 0 6 6 10 14 10 8 0 18 -4
21 -10z m125 0 c0 -5 -9 -10 -20 -10 -11 0 -20 5 -20 10 0 6 9 10 20 10 11 0
20 -4 20 -10z"/>
<path d="M2394 2843 c-12 -2 -32 -15 -45 -29 -21 -22 -24 -37 -31 -173 -5 -82
-5 -220 0 -306 8 -154 9 -158 35 -181 35 -30 87 -37 253 -32 161 4 196 16 229
83 44 91 44 488 -1 567 -11 19 -38 43 -64 56 -41 20 -57 22 -200 21 -85 -1
-165 -4 -176 -6z"/>
</g>
</svg>
